# xmcd
#
# Track frame offsets:
# 150
# 4513
# 24983
# 37205
# 52185
# 67220
# 86343
# 102403
# 119048
# 136583
# 138933
# 154418
# 173653
# 191935
#
# Disc length: 2743 seconds
#
#
# Revision: 0
# Processed by: cddbd v1.5.1PL0 Copyright (c) Steve Scherf et al.
# Submitted via: FreeRIP 2.941 
#
DISCID=c60ab50e
DTITLE=Wenche Myhre - Dagen er din
DYEAR=1900
DGENRE=
TTITLE0=Ouverture
TTITLE1=I´m a Woman
TTITLE2=Sammen med meg
TTITLE3=Jonathan Livingstone Make
TTITLE4=Fötter i sand
TTITLE5=Uendelig Strand
TTITLE6=Bare kjör
TTITLE7=Dagen er din
TTITLE8=Europa
TTITLE9=Intermezzo
TTITLE10=Strikkende dame
TTITLE11=Nattkafè
TTITLE12=Var natt var varm
TTITLE13=Happy End
EXTD=
EXTT0=
EXTT1=
EXTT2=
EXTT3=
EXTT4=
EXTT5=
EXTT6=
EXTT7=
EXTT8=
EXTT9=
EXTT10=
EXTT11=
EXTT12=
EXTT13=
PLAYORDER=
